<?xml version="1.0" standalone="no"?>
<!DOCTYPE svg PUBLIC "-//W3C//DTD SVG 20010904//EN"
 "http://www.w3.org/TR/2001/REC-SVG-20010904/DTD/svg10.dtd">
<svg version="1.0" xmlns="http://www.w3.org/2000/svg"
 width="100.000000pt" height="100.000000pt" viewBox="0 0 100.000000 100.000000"
 preserveAspectRatio="xMidYMid meet">
<metadata>
Created by potrace 1.11, written by Peter Selinger 2001-2013
</metadata>
<g transform="translate(0.000000,100.000000) scale(0.100000,-0.100000)"
fill="#000000" stroke="none">
<path d="M364 960 c-23 -9 -64 -56 -64 -74 0 -6 -13 -11 -30 -12 -57 -2 -109
-59 -97 -106 3 -10 -2 -19 -12 -23 -39 -12 -66 -54 -65 -101 1 -37 -4 -50 -26
-73 -41 -40 -49 -94 -22 -145 13 -25 19 -50 16 -63 -9 -33 15 -91 47 -115 18
-13 29 -31 29 -45 0 -13 10 -33 23 -44 12 -11 45 -42 74 -68 74 -71 142 -78
223 -25 l37 24 60 -31 c53 -27 67 -31 108 -24 37 5 56 15 89 48 22 24 53 50
68 59 15 10 29 31 33 49 4 18 20 43 35 56 33 27 55 83 46 117 -3 13 3 39 14
61 11 22 20 50 20 63 0 30 -25 77 -49 94 -14 10 -18 25 -17 62 1 43 -3 51 -34
79 -22 19 -39 46 -45 71 -11 45 -50 79 -89 79 -17 0 -31 7 -38 21 -36 70 -93
91 -159 58 -41 -20 -41 -20 -73 -1 -33 20 -67 23 -102 9z m92 -42 l44 -22 46
23 c39 20 49 21 75 11 28 -12 49 -37 49 -58 0 -5 -9 -19 -20 -32 -20 -23 -19
-40 3 -40 7 0 18 9 25 20 8 14 23 20 46 20 46 0 76 -36 69 -85 -4 -29 -1 -35
14 -35 61 -1 96 -110 35 -110 -15 0 -33 -4 -41 -9 -22 -14 -3 -31 32 -27 45 5
73 -11 92 -51 13 -28 14 -40 5 -69 -11 -34 -13 -35 -31 -18 -10 9 -25 14 -35
10 -15 -6 -14 -10 10 -35 38 -40 40 -92 3 -128 -24 -24 -28 -25 -44 -11 -10 8
-26 18 -35 21 -12 4 -18 17 -18 35 0 30 -21 58 -34 45 -3 -4 -3 -22 0 -40 6
-29 2 -37 -31 -67 -20 -19 -32 -37 -27 -40 13 -8 54 8 71 27 10 13 17 14 37 5
13 -6 24 -14 25 -17 0 -3 2 -14 4 -23 4 -20 -21 -58 -39 -58 -8 0 -26 -16 -41
-36 -49 -64 -118 -78 -177 -34 -46 34 -83 36 -126 7 -20 -14 -49 -29 -63 -32
-37 -9 -92 17 -124 59 -15 20 -33 36 -41 36 -20 0 -44 42 -38 67 8 30 49 47
65 26 17 -19 58 -35 71 -27 5 3 -7 21 -28 40 -33 30 -36 38 -31 70 5 29 3 35
-11 32 -11 -2 -18 -15 -20 -36 -2 -20 -10 -36 -20 -39 -9 -3 -24 -12 -33 -20
-50 -43 -95 68 -53 132 17 26 3 45 -21 25 -10 -9 -15 -4 -25 24 -9 29 -8 41 5
70 17 36 39 49 85 52 53 3 53 3 40 19 -7 8 -23 15 -37 15 -57 0 -41 95 19 107
28 5 30 8 25 39 -11 69 72 114 118 64 10 -11 22 -20 27 -20 14 0 9 40 -7 46
-29 12 -12 58 30 82 27 16 32 15 81 -10z"/>
<path d="M480 870 c-7 -4 -10 -12 -7 -18 10 -14 52 -9 52 7 0 16 -26 23 -45
11z"/>
<path d="M475 789 c-4 -6 -2 -15 5 -19 19 -12 45 -5 45 11 0 17 -41 24 -50 8z"/>
<path d="M375 740 c-3 -6 3 -22 14 -36 19 -24 19 -33 6 -80 -10 -34 13 -38 30
-5 20 39 19 59 -5 99 -20 33 -34 40 -45 22z"/>
<path d="M580 720 c-17 -24 -20 -38 -15 -70 8 -45 31 -72 41 -47 3 9 1 24 -4
34 -12 23 -8 50 12 72 9 10 16 23 16 29 0 23 -29 12 -50 -18z"/>
<path d="M470 706 c0 -17 18 -25 43 -18 29 8 20 32 -13 32 -19 0 -30 -5 -30
-14z"/>
<path d="M260 612 c0 -28 38 -82 58 -82 21 0 20 16 -2 39 -13 14 -26 35 -28
45 -5 33 -28 31 -28 -2z"/>
<path d="M470 625 c0 -10 10 -15 30 -15 20 0 30 5 30 15 0 10 -10 15 -30 15
-20 0 -30 -5 -30 -15z"/>
<path d="M716 633 c-3 -3 -6 -15 -6 -25 0 -10 -9 -26 -20 -35 -23 -20 -26 -43
-6 -43 20 0 56 48 56 76 0 24 -13 38 -24 27z"/>
<path d="M475 562 c-15 -15 -2 -32 25 -32 37 0 41 26 5 32 -13 3 -27 3 -30 0z"/>
<path d="M475 479 c-9 -14 4 -29 25 -29 19 0 36 17 27 26 -10 10 -47 12 -52 3z"/>
<path d="M287 452 c-25 -5 -16 -26 14 -30 13 -2 36 -15 51 -29 24 -23 28 -24
34 -9 12 32 -54 78 -99 68z"/>
<path d="M688 451 c-37 -8 -79 -47 -72 -66 5 -12 11 -11 36 10 16 14 40 25 54
25 14 0 24 6 24 14 0 20 -10 24 -42 17z"/>
<path d="M480 400 c-13 -9 -13 -11 0 -20 18 -12 21 -12 39 -1 15 10 7 31 -12
31 -7 0 -19 -5 -27 -10z"/>
<path d="M470 316 c0 -17 18 -25 43 -18 26 7 15 26 -16 30 -19 2 -27 -1 -27
-12z"/>
<path d="M375 269 c-4 -6 -3 -14 2 -18 20 -12 31 -47 25 -80 -6 -41 18 -39 33
3 15 44 -39 130 -60 95z"/>
<path d="M588 263 c-23 -27 -29 -52 -22 -89 10 -52 32 -43 32 13 0 31 6 51 16
59 9 6 16 16 16 23 0 17 -25 13 -42 -6z"/>
<path d="M470 235 c0 -10 10 -15 30 -15 20 0 30 5 30 15 0 10 -10 15 -30 15
-20 0 -30 -5 -30 -15z"/>
<path d="M470 155 c0 -10 10 -15 30 -15 20 0 30 5 30 15 0 10 -10 15 -30 15
-20 0 -30 -5 -30 -15z"/>
</g>
</svg>
